<svg xmlns="http://www.w3.org/2000/svg" viewBox="0 0 160.38 160.38"><defs><style>.cls-1{fill:#fbfcfc;}.cls-2{fill:#58595b;}.cls-3{fill:#b2c3d8;}.cls-4{fill:none;stroke:#bcbec0;stroke-linecap:round;stroke-linejoin:round;stroke-width:1.94px;}</style></defs><g id="Layer_2" data-name="Layer 2"><g id="Layer_1-2" data-name="Layer 1"><rect class="cls-1" width="160.38" height="160.38"/><path class="cls-2" d="M29.21,100.74a3.58,3.58,0,0,1,1.25,2.9,3.54,3.54,0,0,1-1.25,2.88,5.25,5.25,0,0,1-3.47,1H22.4v3.83h-.85V99.7h4.19A5.25,5.25,0,0,1,29.21,100.74ZM28.6,106a2.86,2.86,0,0,0,1-2.34,2.9,2.9,0,0,0-1-2.35,4.34,4.34,0,0,0-2.86-.83H22.4v6.34h3.34A4.34,4.34,0,0,0,28.6,106Z"/><path class="cls-2" d="M34.85,103.11a4,4,0,0,1,2.08-.51v.82h-.2a2.91,2.91,0,0,0-2.28.91,3.67,3.67,0,0,0-.82,2.53v4.55H32.8v-8.73h.8v1.91A3.07,3.07,0,0,1,34.85,103.11Z"/><path class="cls-2" d="M40.33,110.9a4.08,4.08,0,0,1-1.56-1.58,4.87,4.87,0,0,1,0-4.57,4.08,4.08,0,0,1,1.56-1.58,4.65,4.65,0,0,1,4.46,0,4.11,4.11,0,0,1,1.57,1.58,4.94,4.94,0,0,1,0,4.57,4.11,4.11,0,0,1-1.57,1.58,4.72,4.72,0,0,1-4.46,0Zm4-.66a3.33,3.33,0,0,0,1.25-1.3,4.17,4.17,0,0,0,0-3.81,3.42,3.42,0,0,0-1.25-1.31,3.75,3.75,0,0,0-3.6,0,3.42,3.42,0,0,0-1.25,1.31,4.17,4.17,0,0,0,0,3.81,3.33,3.33,0,0,0,1.25,1.3,3.68,3.68,0,0,0,3.6,0Z"/><path class="cls-2" d="M57.27,99V111.4h-.82v-2.06A3.74,3.74,0,0,1,55,110.91a4.1,4.1,0,0,1-2.13.55,4.42,4.42,0,0,1-2.2-.56,4.06,4.06,0,0,1-1.55-1.58,4.62,4.62,0,0,1-.56-2.29,4.68,4.68,0,0,1,.56-2.29,4,4,0,0,1,1.55-1.58,4.42,4.42,0,0,1,2.2-.56,4,4,0,0,1,2.1.56,3.84,3.84,0,0,1,1.46,1.53V99Zm-2.55,11.25a3.26,3.26,0,0,0,1.25-1.3,4.17,4.17,0,0,0,0-3.81,3.35,3.35,0,0,0-1.25-1.31,3.73,3.73,0,0,0-3.59,0,3.45,3.45,0,0,0-1.26,1.31,4.17,4.17,0,0,0,0,3.81,3.35,3.35,0,0,0,1.26,1.3,3.66,3.66,0,0,0,3.59,0Z"/><path class="cls-2" d="M68.44,102.67v8.73h-.81v-1.88A3.24,3.24,0,0,1,66.35,111a3.85,3.85,0,0,1-2,.51,3.6,3.6,0,0,1-2.67-.95,3.65,3.65,0,0,1-1-2.74v-5.1h.83v5a3.08,3.08,0,0,0,.75,2.24,2.83,2.83,0,0,0,2.13.77,3.06,3.06,0,0,0,2.33-.92,3.49,3.49,0,0,0,.86-2.47v-4.65Z"/><path class="cls-2" d="M73.17,110.9a4.13,4.13,0,0,1-1.58-1.58,5,5,0,0,1,0-4.58,4.07,4.07,0,0,1,1.58-1.58,4.57,4.57,0,0,1,2.27-.56,4.42,4.42,0,0,1,1.91.41,3.54,3.54,0,0,1,1.4,1.2l-.62.45a3,3,0,0,0-1.16-1,3.5,3.5,0,0,0-1.53-.32,3.61,3.61,0,0,0-1.83.46,3.16,3.16,0,0,0-1.27,1.29,4.26,4.26,0,0,0,0,3.85,3.22,3.22,0,0,0,1.27,1.29,3.61,3.61,0,0,0,1.83.46,3.64,3.64,0,0,0,1.53-.32,3,3,0,0,0,1.16-1l.62.45a3.44,3.44,0,0,1-1.4,1.19,4.28,4.28,0,0,1-1.91.41A4.57,4.57,0,0,1,73.17,110.9Z"/><path class="cls-2" d="M85.69,110.84a2,2,0,0,1-.8.46,3,3,0,0,1-1,.16,2.16,2.16,0,0,1-2.38-2.37v-5.7h-1.6v-.72h1.6v-1.9h.84v1.9h2.77v.72H82.36V109a1.85,1.85,0,0,0,.41,1.29,1.55,1.55,0,0,0,1.21.44,1.92,1.92,0,0,0,1.35-.48Z"/><path class="cls-2" d="M92.1,99.7h2.18v11.7H92.1Z"/><path class="cls-2" d="M111.18,103.35a4,4,0,0,1,1,2.93v5.12h-2.09v-4.85a2.57,2.57,0,0,0-.52-1.76,1.84,1.84,0,0,0-1.48-.6,2.15,2.15,0,0,0-1.69.7,2.84,2.84,0,0,0-.64,2v4.53h-2.09v-4.85a2.62,2.62,0,0,0-.51-1.76,1.88,1.88,0,0,0-1.49-.6,2.18,2.18,0,0,0-1.7.69,2.83,2.83,0,0,0-.63,2v4.53H97.24v-8.93h2v1.14a3.32,3.32,0,0,1,1.26-.92,4.29,4.29,0,0,1,1.67-.32,4,4,0,0,1,1.78.38,2.87,2.87,0,0,1,1.23,1.11,3.8,3.8,0,0,1,1.42-1.1,4.64,4.64,0,0,1,1.92-.39A3.65,3.65,0,0,1,111.18,103.35Z"/><path class="cls-2" d="M121.26,103.31a3.64,3.64,0,0,1,1,2.85v5.24h-2v-1.09a2.38,2.38,0,0,1-1.1.89,4.8,4.8,0,0,1-3.47,0,2.68,2.68,0,0,1-1.16-1,2.46,2.46,0,0,1-.41-1.38,2.35,2.35,0,0,1,.9-1.93,4.38,4.38,0,0,1,2.81-.73h2.31v-.13a1.83,1.83,0,0,0-.56-1.44,2.44,2.44,0,0,0-1.66-.5,4.92,4.92,0,0,0-1.48.23,3.77,3.77,0,0,0-1.23.65l-.82-1.52a5.22,5.22,0,0,1,1.69-.82,7.43,7.43,0,0,1,2.09-.28A4.38,4.38,0,0,1,121.26,103.31Zm-1.9,6.32a2,2,0,0,0,.86-1v-1h-2.16c-1.2,0-1.8.39-1.8,1.19a1.07,1.07,0,0,0,.45.9A2.09,2.09,0,0,0,118,110,2.7,2.7,0,0,0,119.36,109.63Z"/><path class="cls-2" d="M133.92,102.47V110q0,4.72-4.81,4.72a8.82,8.82,0,0,1-2.44-.33,5.33,5.33,0,0,1-1.91-.94l.94-1.58a4.24,4.24,0,0,0,1.48.78A5.66,5.66,0,0,0,129,113a3,3,0,0,0,2.16-.66,2.74,2.74,0,0,0,.69-2v-.47a3.48,3.48,0,0,1-1.31.88,4.39,4.39,0,0,1-1.69.31,4.84,4.84,0,0,1-2.29-.55,4.07,4.07,0,0,1-1.63-1.53,4.59,4.59,0,0,1,0-4.5,4,4,0,0,1,1.63-1.51,4.84,4.84,0,0,1,2.29-.54,4.77,4.77,0,0,1,1.77.32,3.21,3.21,0,0,1,1.33,1v-1.19Zm-2.81,6a2.6,2.6,0,0,0,0-3.67,3.08,3.08,0,0,0-3.91,0,2.6,2.6,0,0,0,0,3.67,3,3,0,0,0,3.91,0Z"/><path class="cls-2" d="M145,107.6h-7a2.43,2.43,0,0,0,1,1.57,3.18,3.18,0,0,0,1.93.57,3.26,3.26,0,0,0,2.43-1l1.12,1.29a3.86,3.86,0,0,1-1.53,1.09,5.62,5.62,0,0,1-2.07.36,5.52,5.52,0,0,1-2.59-.58,4.19,4.19,0,0,1-1.73-1.63,4.6,4.6,0,0,1-.61-2.37,4.67,4.67,0,0,1,.59-2.34,4.24,4.24,0,0,1,1.65-1.63,4.8,4.8,0,0,1,2.38-.59,4.66,4.66,0,0,1,2.33.58,4,4,0,0,1,1.6,1.62,4.83,4.83,0,0,1,.58,2.41A5.67,5.67,0,0,1,145,107.6Zm-6.17-3a2.49,2.49,0,0,0-.85,1.57h5.07a2.46,2.46,0,0,0-.82-1.57,2.71,2.71,0,0,0-3.4,0Z"/><rect class="cls-3" x="29.88" y="75.29" width="33.96" height="6.57"/><rect class="cls-3" x="29.88" y="64.1" width="33.96" height="6.57"/><path class="cls-4" d="M30.08,61.12l-5.28,3.3q-2.65-5.36-5.29-10.73a23.63,23.63,0,0,1,9.91-6.94c4.16-1.46,5.87-.58,16.19-.66C56.33,46,57.67,45,62,46.26a26,26,0,0,1,11.56,7.26L68.73,64.26,63.3,61.12,64.1,89,29.42,88.7Z"/><path class="cls-4" d="M38.83,46a9.34,9.34,0,0,0,2.48,5.53c.59.61,2.74,2.85,5.78,2.65,3.76-.26,5.72-4,6.12-4.8a12.15,12.15,0,0,0,1.17-3.61"/></g></g></svg>