<svg xmlns="http://www.w3.org/2000/svg" viewBox="0 0 83.5 83.5"><defs><style>.cls-1{fill:#b7b7b7;}</style></defs><g id="Layer_2" data-name="Layer 2"><g id="Layer_1-2" data-name="Layer 1"><polygon class="cls-1" points="23.93 45.27 26.95 45.27 26.95 60.28 29.87 60.28 29.87 45.27 32.89 45.27 32.89 42.71 23.93 42.71 23.93 45.27"/><path class="cls-1" d="M41.86,32.79a1.36,1.36,0,0,0,1-.32,1.23,1.23,0,0,0,.35-.91V23.78A.9.9,0,0,0,42.8,23a1.41,1.41,0,0,0-.94-.3A1.23,1.23,0,0,0,41,23a.91.91,0,0,0-.34.75v7.78a1.26,1.26,0,0,0,.32.91A1.17,1.17,0,0,0,41.86,32.79Z"/><path class="cls-1" d="M48.3,47.16a2.49,2.49,0,0,0-1.19.31,4,4,0,0,0-1.11.9V42.71H43.38V60.28H46v-1a3.35,3.35,0,0,0,1.11.88,3,3,0,0,0,1.35.28,2.14,2.14,0,0,0,1.76-.73,3.22,3.22,0,0,0,.61-2.11v-7.2A3.81,3.81,0,0,0,50.18,48,2.24,2.24,0,0,0,48.3,47.16Zm-.14,10.09a1.38,1.38,0,0,1-.22.89.83.83,0,0,1-.7.28,1.52,1.52,0,0,1-.63-.14,2.17,2.17,0,0,1-.61-.46V49.74a1.8,1.8,0,0,1,.53-.39,1.23,1.23,0,0,1,.55-.13,1,1,0,0,1,.81.33,1.59,1.59,0,0,1,.27,1Z"/><path class="cls-1" d="M38.84,57.17a3.5,3.5,0,0,1-.81.69,1.47,1.47,0,0,1-.72.27.63.63,0,0,1-.53-.2,1.14,1.14,0,0,1-.16-.66v-10H34V58.16a2.83,2.83,0,0,0,.45,1.74,1.65,1.65,0,0,0,1.36.57,3.12,3.12,0,0,0,1.5-.41,5.61,5.61,0,0,0,1.5-1.2v1.42h2.59v-13H38.84v9.85Z"/><path class="cls-1" d="M41.75,0A41.75,41.75,0,1,0,83.5,41.75,41.75,41.75,0,0,0,41.75,0ZM48.5,20.62h2.91v11a1.16,1.16,0,0,0,.19.73.69.69,0,0,0,.59.24,1.76,1.76,0,0,0,.82-.31,3.76,3.76,0,0,0,.89-.77V20.62h2.92V34.9H53.9V33.33a6,6,0,0,1-1.68,1.32,3.56,3.56,0,0,1-1.69.46A1.82,1.82,0,0,1,49,34.47a3,3,0,0,1-.51-1.91ZM37.66,23.89a3.27,3.27,0,0,1,1.18-2.65,4.82,4.82,0,0,1,3.17-1,4.32,4.32,0,0,1,3,1A3.44,3.44,0,0,1,46.13,24v7.38A3.71,3.71,0,0,1,45,34.22a4.48,4.48,0,0,1-3.13,1,4.34,4.34,0,0,1-3.06-1.07,3.82,3.82,0,0,1-1.15-2.9v-7.4Zm-7.95-8.35,2.14,7.74h.2l2-7.74h3.34L33.6,26.87v8H30.32V27.23L26.4,15.54ZM67.93,56.29a9.36,9.36,0,0,1-9.36,9.36H26.06a9.36,9.36,0,0,1-9.36-9.36V48.77a9.36,9.36,0,0,1,9.36-9.36H58.57a9.36,9.36,0,0,1,9.36,9.36Z"/><path class="cls-1" d="M56.13,47a3.92,3.92,0,0,0-2.84,1.06,3.67,3.67,0,0,0-1.1,2.74v5.83a4.15,4.15,0,0,0,1,2.94,3.58,3.58,0,0,0,2.74,1.07,3.85,3.85,0,0,0,2.91-1,4.15,4.15,0,0,0,1-3V56H57.15v.59A2.86,2.86,0,0,1,56.9,58a1,1,0,0,1-.9.34,1,1,0,0,1-.88-.39,2.86,2.86,0,0,1-.25-1.43V54.11h5V50.8a3.93,3.93,0,0,0-1-2.82A3.65,3.65,0,0,0,56.13,47Zm1,5.1H54.86V50.79a1.94,1.94,0,0,1,.27-1.17,1,1,0,0,1,.89-.35,1,1,0,0,1,.86.35,1.94,1.94,0,0,1,.27,1.17V52.1Z"/></g></g></svg>