<svg xmlns="http://www.w3.org/2000/svg" viewBox="0 0 595.3 768.3"><g id="Layer_2" data-name="Layer 2"><g id="Layer_1-2" data-name="Layer 1"><rect width="595.3" height="768.34" style="fill:#fff"/><rect x="181.4" y="53" width="232.4" height="47.14" rx="23.6" style="fill:#e6e7e8"/><rect x="83.2" y="196.8" width="428.8" height="12.71" rx="6.4" style="fill:#d1d3d4"/><rect x="83.2" y="157.7" width="428.8" height="12.71" rx="6.4" style="fill:#d1d3d4"/><rect y="263" width="595.3" height="505.32" style="fill:#e6e7e8"/><rect x="77.6" y="380.9" width="194.4" height="34.46" rx="5.1" style="fill:#a7a9ac"/><rect x="77.6" y="566" width="194.4" height="64.71" rx="9.7" style="fill:#a7a9ac"/><rect x="77.6" y="657.8" width="92.1" height="36.26" rx="5" style="fill:#808285"/><rect x="179.9" y="657.8" width="92.1" height="36.26" rx="5" style="fill:#bcbec0"/><rect x="77.6" y="353" width="107.2" height="12.71" rx="3.7" style="fill:#bcbec0"/><rect x="77.6" y="473.1" width="194.4" height="34.46" rx="5.1" style="fill:#a7a9ac"/><rect x="77.6" y="445.2" width="107.2" height="12.71" rx="3.7" style="fill:#bcbec0"/><rect x="77.6" y="538.9" width="107.2" height="12.71" rx="3.7" style="fill:#bcbec0"/><rect x="317.6" y="353" width="194.4" height="211.28" rx="12.5" style="fill:#a7a9ac"/><rect x="317.6" y="605.1" width="194.4" height="12.71" rx="4.3" style="fill:#bcbec0"/><rect x="317.6" y="643.3" width="194.4" height="12.71" rx="4.3" style="fill:#bcbec0"/><rect x="317.6" y="681.4" width="142.2" height="12.71" rx="4.3" style="fill:#bcbec0"/></g></g></svg>