<?xml version="1.0" encoding="UTF-8" standalone="no"?>
<svg width="342px" height="612px" viewBox="0 0 342 612" version="1.1" xmlns="http://www.w3.org/2000/svg" xmlns:xlink="http://www.w3.org/1999/xlink" xmlns:sketch="http://www.bohemiancoding.com/sketch/ns">
    <!-- Generator: Sketch 3.2.2 (9983) - http://www.bohemiancoding.com/sketch -->
    <title>Rectangle 22 + Oval 4 + Rectangle 23 + Oval 5</title>
    <desc>Created with Sketch.</desc>
    <defs></defs>
    <g id="Page-1" stroke="none" stroke-width="1" fill="none" fill-rule="evenodd" sketch:type="MSPage">
        <g id="Artboard-1" sketch:type="MSArtboardGroup" transform="translate(-469.000000, -144.000000)">
            <g id="Rectangle-22-+-Oval-4-+-Rectangle-23-+-Oval-5" sketch:type="MSLayerGroup" transform="translate(470.000000, 145.000000)">
                <rect id="Rectangle-22" stroke="#979797" fill="#FFFFFF" sketch:type="MSShapeGroup" x="0" y="0" width="340" height="610" rx="33"></rect>
                <circle id="Oval-4" stroke="#C4C4C4" fill="#FBFBFB" sketch:type="MSShapeGroup" cx="170" cy="577" r="25"></circle>
                <g id="Rectangle-23-+-Oval-5" transform="translate(126.000000, 27.000000)" sketch:type="MSShapeGroup">
                    <circle id="Oval-5" stroke="#C4C4C4" fill="#FBFBFB" cx="4.5" cy="4.5" r="4.5"></circle>
                    <path d="M23.5032382,0 L64.4967618,0 C66.9838316,0 69,2.01977567 69,4.5 C69,6.98528137 66.9780138,9 64.4967618,9 L23.5032382,9 C21.0161684,9 19,6.98022433 19,4.5 C19,2.01471863 21.0219862,0 23.5032382,0 Z M23.5032382,2 L64.4967618,2 C65.8774903,2 67,3.12257327 67,4.5 C67,5.87798373 65.8761743,7 64.4967618,7 L23.5032382,7 C22.1225097,7 21,5.87742673 21,4.5 C21,3.12201627 22.1238257,2 23.5032382,2 Z" id="Rectangle-23" fill="#C4C4C4"></path>
                    <path d="M22.6120746,1 L65.3879254,1 C66.8286855,1 68,2.57160257 68,4.5 C68,6.42917723 66.8273124,8 65.3879254,8 L22.6120746,8 C21.1713145,8 20,6.42839743 20,4.5 C20,2.57082277 21.1726876,1 22.6120746,1 Z" id="Path" fill="#FBFBFB"></path>
                </g>
            </g>
        </g>
    </g>
</svg>