<svg xmlns="http://www.w3.org/2000/svg" viewBox="0 0 377 377"><g id="Layer_2" data-name="Layer 2"><g id="Layer_1-2" data-name="Layer 1"><path d="M168.8,303.3V275.8c-15.9-.3-32.5-5.2-42.1-12l6.6-18.3a74.1,74.1,0,0,0,39.6,11.7c19.6,0,32.8-11.2,32.8-26.7s-10.7-24.3-31.1-32.4c-28.1-11-45.4-23.5-45.4-47.2s16.2-39.8,41.5-43.9V79.5h17.1v26.4c16.5.6,27.8,4.9,35.8,9.5l-6.9,18a68.1,68.1,0,0,0-34.7-9.2c-21.2,0-29.1,12.5-29.1,23.4,0,14.2,10.1,21.3,34.1,31.1,28.3,11.4,42.6,25.6,42.6,49.9,0,21.5-15.1,41.7-43.4,46.3v28.4Z" style="fill:#666"/><path d="M306,10h22.2A38.8,38.8,0,0,1,367,48.8V328.2A38.8,38.8,0,0,1,328.2,367H306" style="fill:none;stroke:#666;stroke-miterlimit:10;stroke-width:20px"/><path d="M69,367H48.8A38.8,38.8,0,0,1,10,328.2V48.8A38.8,38.8,0,0,1,48.8,10H69" style="fill:none;stroke:#666;stroke-miterlimit:10;stroke-width:20px"/></g></g></svg>