<svg width="59" height="47" viewBox="0 0 59 47" xmlns="http://www.w3.org/2000/svg"><title>video-player</title><g fill="#979894"><path d="M36.537 23.156l-11-7a1.005 1.005 0 0 0-1.019-.033A1.002 1.002 0 0 0 24 17v14a1.001 1.001 0 0 0 1.537.844l11-7a1.002 1.002 0 0 0 0-1.688z"/><path d="M57.983 0H1.017A1.02 1.02 0 0 0 0 1.022v44.956A1.02 1.02 0 0 0 1.017 47h56.966A1.02 1.02 0 0 0 59 45.978V1.022A1.02 1.02 0 0 0 57.983 0zm-47.81 22.478H2.033v-9.195h8.138v9.195zm-8.139 2.044h8.138v9.195H2.034v-9.195zm10.173 10.217V2.043h34.586v42.914H12.207V34.739zm44.759-12.26h-8.138v-9.196h8.138v9.195zm-8.138 2.043h8.138v9.195h-8.138v-9.195zm8.138-22.479v9.196h-8.138V2.043h8.138zm-54.932 0h8.138v9.196H2.034V2.043zm0 42.914V35.76h8.138v9.196H2.034zm54.932 0h-8.138V35.76h8.138v9.196z"/></g></svg>